<svg version="1" xmlns="http://www.w3.org/2000/svg" width="277.333" height="277.333" viewBox="0 0 208.000000 208.000000"><path d="M102 11.1c-6.3 3.9-12.2 7.9-13.2 9-.9 1-1.9 1.9-2.3 1.9-.9 0-25.5 14.9-27.2 16.4-.7.6-1.7 4.9-2.2 9.5-.6 4.6-1.3 8.6-1.6 8.9-.2.3-3-.5-6.1-1.7-3.1-1.2-5.9-2-6.1-1.8-.2.2 2.4 1.5 5.8 2.8 3.4 1.3 6.2 2.8 6.3 3.4 0 .5-4.2 3.8-9.4 7.3-15.2 10.1-13.3 9.6-23.6 5.5-4.9-1.9-9.3-3.9-9.7-4.3-.5-.4 1.9-2.4 5.2-4.5 3.4-2 6.1-3.9 6.1-4.2 0-.3-1 .1-2.3.9-1.2.8-4.3 2.7-6.9 4.3-2.6 1.6-4.9 3.7-5.1 4.6-.6 2.2 7.8 28.7 9.8 30.9.9 1 1.4 2.3 1.1 2.9-.8 1.2 8 28.8 9.5 29.6.5.4.7 1.1.3 1.6-.3.5 1.3 6.6 3.6 13.5l4.2 12.6 5.7 3.6c3.1 2 8.6 5.2 12.2 7.1 3.6 2 11.7 6.6 17.9 10.3 6.1 3.8 11.9 6.8 12.8 6.8.9 0 2.5.8 3.6 1.8 2.5 2.3 23.1 14.2 24.4 14.2 1.2 0 26.2-19.8 26.2-20.8-.1-.4-.7-3.6-1.5-7.2l-1.5-6.5 4.3-3.8c2.3-2.1 9.3-7.6 15.4-12.3L169 145l9-18.2c12.9-26.2 22-45.5 22-46.6 0-1.4-26.8-25.2-28.5-25.2-.7 0-1.7-.9-2-2-.9-2.8-25.3-24-27.6-24-1 0-1.9-.9-2.1-2.2-.3-2.3-2.8-3.8-2.8-1.6 0 1.5-19.8 14.8-22 14.8-1.7 0-23-18.6-23-20.1 0-.5 2.1-2.2 4.8-3.8C107.4 9.5 115.4 4 114.5 4c-.5 0-6.2 3.2-12.5 7.1zm-3.1 22.3C104.5 38.3 109 43 109 44c0 2-19.5 16-22.3 16C84.6 60 63 40.4 63 38.6c0-1.7 23.1-15.6 24.6-14.8.7.4 5.8 4.7 11.3 9.6zm56.7 7.3c6.3 5.4 11.3 10.3 11.2 11-.4 1.7-19.8 15.3-21.7 15.3-2 0-24.3-19.9-23.6-21.1.8-1.2 20.7-14.9 21.8-14.9.4 0 6 4.4 12.3 9.7zM116 43.1c0 .5-.7.9-1.5.9-1.5 0-2-1.2-.9-2.3.8-.8 2.4.1 2.4 1.4zm11.8 16.5c6.2 5.3 11.2 10.3 11.2 11 0 .8-3.9 4.3-8.7 7.8-8.6 6.3-8.8 6.4-10.8 4.7-2.7-2.5-6.5-4.4-7.3-3.7-.3.3 0 .6.6.6.7 0 1.2.6 1.2 1.4C114 82.8 90.3 99 88.2 99c-1.6 0-21.4-7.9-23-9.2-1.8-1.5-.5-2.8 12.1-11.5l11.1-7.7 5.5 2.1c3.1 1.1 6.5 2.4 7.6 2.8 1.1.4.7-.2-1-1.3-1.6-1.1-4.3-3.4-6-5.1-2.6-2.8-2.7-3.3-1.4-4.7 2.9-2.8 20.4-14.3 22-14.3.9-.1 6.6 4.2 12.7 9.5zm6.7 2.5l3 3.3-4-3.1c-2.2-1.7-5.3-4.6-7-6.4l-3-3.3 4 3.1c2.2 1.7 5.4 4.6 7 6.4zm50.1 4.4c6.5 5.8 12 11.1 12.1 11.8.2 1.1-17.5 14.9-20.8 16.2-1 .4-5.7-3.2-13.8-10.6-11.9-10.8-12.2-11.2-10.4-13 3.2-3.2 18.8-14.8 19.9-14.8.6-.1 6.5 4.6 13 10.4zM72.9 64.8c5.2 2 9.6 4.2 9.8 4.8.2.6-5.2 4.8-12.1 9.3l-12.4 8.3-10.7-4.4c-5.9-2.3-10.8-4.8-10.8-5.3C36.6 76 59.1 61 61.5 61c1.1 0 6.2 1.7 11.4 3.8zM87 63.5c0 .8-.4 1.5-.9 1.5-1.3 0-2.2-1.6-1.4-2.4 1.1-1.1 2.3-.6 2.3.9zm58 6c0 .8-.4 1.5-.9 1.5-1.3 0-2.2-1.6-1.4-2.4 1.1-1.1 2.3-.6 2.3.9zm13.5 17.7c6.1 5.5 11.1 10.8 11.2 11.7.3 1.7-19.6 17.6-22.1 17.6-1.6 0-22.1-18.7-23.7-21.6-.8-1.6.4-2.9 9.8-9.9 5.9-4.4 11.5-7.9 12.3-7.9.8 0 6.5 4.5 12.5 10.1zM34 79c0 .5-.4 1-1 1-.5 0-1-.5-1-1 0-.6.5-1 1-1 .6 0 1 .4 1 1zm27 11.1c0 .5-.7.9-1.5.9-1.5 0-2-1.2-.9-2.3.8-.8 2.4.1 2.4 1.4zm60.2 11.4c1.5 7.2 2.5 13.7 2.2 14.5-.7 2.2-22.2 17.3-23.8 16.7-1.2-.5-7.6-23.3-7.6-27.2 0-1.7 22.8-17.5 25-17.2 1 .2 2.2 4.1 4.2 13.2zm54.6-4.4c-.2.6-.8 1-1.3 1s-1.1-.4-1.3-1c-.2-.6.4-1.1 1.3-1.1s1.5.5 1.3 1.1zm-85.6 5.4c0 .5-.5 1.1-1.1 1.3-.6.2-1.1-.4-1.1-1.3s.5-1.5 1.1-1.3c.6.2 1.1.8 1.1 1.3zM44 113c0 .5-.5 1-1.1 1-.5 0-.7-.5-.4-1 .3-.6.8-1 1.1-1 .2 0 .4.4.4 1zm102.8 6.1c-.2.6-.8 1-1.3 1s-1.1-.4-1.3-1c-.2-.6.4-1.1 1.3-1.1s1.5.5 1.3 1.1zm-75.4 5.4c-.4.8-1.1 1.2-1.6.9-.6-.4-.5-1 .3-1.5 1.9-1.2 1.9-1.1 1.3.6zm55-.6c.7 1.1 5.6 23.5 5.6 25.5 0 1.6-20.4 17.6-22.5 17.6-1.5 0-2-1.5-5.5-16.7-1.3-5.4-1.8-9.8-1.3-10.7.8-1.4 21.2-16.4 22.5-16.5.4-.1.9.3 1.2.8zm16.2 7.8c-.8 1.5-1.5 2.5-1.6 2.1 0-1.2 2.3-5.8 2.7-5.4.3.2-.2 1.7-1.1 3.3zM101 138c0 .5-.7 1-1.5 1s-1.5-.5-1.5-1c0-.6.7-1 1.5-1s1.5.4 1.5 1zm35 28.2c1.1 5.1 2.3 11.1 2.6 13.3l.5 4-10.4 8.2c-5.8 4.6-11 8.3-11.5 8.3-1.1 0-7.2-23.8-6.5-25.5.4-1.1 21.4-17.4 22.5-17.5.3 0 1.6 4.2 2.8 9.2zm-28.5 5.8c.3.5.1 1-.4 1-.6 0-1.1-.5-1.1-1 0-.6.2-1 .4-1 .3 0 .8.4 1.1 1z"/><path d="M108 78c.8.5 2 1 2.5 1 .6 0 .3-.5-.5-1s-1.9-1-2.5-1c-.5 0-.3.5.5 1zM118 7.5c1.3 1.4 2.6 2.5 2.8 2.5.3 0-.5-1.1-1.8-2.5S116.4 5 116.2 5c-.3 0 .5 1.1 1.8 2.5zM125 13.5c1.3 1.4 2.6 2.5 2.8 2.5.3 0-.5-1.1-1.8-2.5s-2.6-2.5-2.8-2.5c-.3 0 .5 1.1 1.8 2.5zM132 19.5c1.3 1.4 2.6 2.5 2.8 2.5.3 0-.5-1.1-1.8-2.5s-2.6-2.5-2.8-2.5c-.3 0 .5 1.1 1.8 2.5zM33.5 53c-.3.6.1.7.9.4 1.8-.7 2.1-1.4.7-1.4-.6 0-1.3.4-1.6 1zM28.3 56.1c-3.5 2.2-4.6 3.7-1.5 2 2.2-1.3 5.8-4 5.2-4.1-.3 0-2 1-3.7 2.1z"/></svg>